<svg version="1.1" xmlns="http://www.w3.org/2000/svg" xmlns:xlink="http://www.w3.org/1999/xlink" x="0px" y="0px" viewBox="0 0 500 500"
	 style="enable-background:new 0 0 500 500;" xml:space="preserve" fill="#DC4E41">
	<g>
		<path d="M161.5,224.9v50.7h83.8c-3.4,21.7-25.3,63.8-83.8,63.8 c-50.5,0-91.6-41.8-91.6-93.3s41.2-93.3,91.6-93.3c28.7,0,47.9,12.2,58.9,22.8l40.1-38.6c-25.8-24.1-59.1-38.6-99-38.6 C79.8,98.2,13.8,164.3,13.8,246s66.1,147.8,147.8,147.8c85.3,0,141.9-60,141.9-144.4c0-9.7-1.1-17.1-2.3-24.5H161.5L161.5,224.9z"/>
		<path d="M478.3,224.9H436v-42.2h-42.2v42.2h-42.2v42.2h42.2v42.2H436	v-42.2h42.2"/>
	</g>
</svg>
