<svg version="1.1" xmlns="http://www.w3.org/2000/svg" xmlns:xlink="http://www.w3.org/1999/xlink" x="0px" y="0px"
	 viewBox="0 0 500 500" style="enable-background:new 0 0 500 500;" xml:space="preserve" fill="#55ACEE">
<path d="M466.8,115.4c-16,7.1-33.2,11.9-51.1,14c18.4-10.9,32.5-28.4,39.2-49.2c-17.1,10.2-36.2,17.6-56.5,21.6
	c-16.2-17.3-39.3-28.1-64.9-28.1c-49.2,0-89,39.8-89,89c0,7,0.8,13.8,2.4,20.3c-73.9-3.6-139.5-39.2-183.4-93
	c-7.6,13.2-12.1,28.4-12.1,44.7c0,30.9,15.7,58.1,39.7,74.1c-14.6-0.5-28.2-4.4-40.3-11.1c0,0.3,0,0.8,0,1.1
	c0,43.2,30.6,79,71.4,87.3c-7.5,2.1-15.4,3.2-23.5,3.2c-5.7,0-11.3-0.6-16.8-1.6c11.3,35.4,44.3,61.1,83.1,61.9
	c-30.5,23.8-68.9,38.1-110.6,38.1c-7.1,0-14.3-0.5-21.3-1.3c39.3,25.2,86.2,40,136.4,40c163.7,0,253.2-135.7,253.2-253.2
	c0-3.8-0.2-7.8-0.3-11.6C439.8,149,454.9,133.3,466.8,115.4z"/>
</svg>
