<svg version="1.1" baseProfile="tiny" xmlns="http://www.w3.org/2000/svg" xmlns:xlink="http://www.w3.org/1999/xlink" x="0px" y="0px" viewBox="0 0 500 500"
	 xml:space="preserve">
<path id="Blue" fill="#3C5A99" d="M420.1,444.7c13.6,0,24.5-11,24.5-24.5V24.5c0-13.6-11-24.5-24.5-24.5H24.5C11,0,0,11,0,24.5
	v395.6c0,13.6,11,24.5,24.5,24.5H420.1z"/>
<path id="f" fill="#FFFFFF" d="M306.8,444.7V272.5h57.8l8.7-67.1h-66.5v-42.8c0-19.4,5.4-32.7,33.3-32.7l35.5,0v-60
	c-6.1-0.8-27.2-2.6-51.8-2.6c-51.2,0-86.3,31.3-86.3,88.7v49.5h-57.9v67.1h57.9v172.2H306.8z"/>
</svg>
